<svg id="레이어_1" data-name="레이어 1" xmlns="http://www.w3.org/2000/svg" viewBox="0 0 16 16"><path d="M15.82,7.35l-2-.12a5.81,5.81,0,0,0-1.16-2.81L14,2.91a.2.2,0,0,0,0-.26L13.33,2a.19.19,0,0,0-.26,0L11.58,3.33A5.72,5.72,0,0,0,8.76,2.17l-.13-2A.19.19,0,0,0,8.44,0h-.9a.19.19,0,0,0-.19.18l-.12,2A5.81,5.81,0,0,0,4.42,3.33L2.91,2a.2.2,0,0,0-.26,0L2,2.67a.19.19,0,0,0,0,.26L3.33,4.42A5.72,5.72,0,0,0,2.17,7.24l-2,.13A.19.19,0,0,0,0,7.56v.9a.19.19,0,0,0,.18.19l2,.12a5.81,5.81,0,0,0,1.16,2.81L2,13.09a.2.2,0,0,0,0,.26l.64.63a.19.19,0,0,0,.26,0l1.49-1.32a5.72,5.72,0,0,0,2.82,1.16l.13,2a.19.19,0,0,0,.19.18h.9a.19.19,0,0,0,.19-.18l.12-2a5.81,5.81,0,0,0,2.81-1.16L13.09,14a.2.2,0,0,0,.26,0l.63-.64a.19.19,0,0,0,0-.26l-1.32-1.49a5.72,5.72,0,0,0,1.16-2.82l2-.13A.19.19,0,0,0,16,8.44v-.9A.19.19,0,0,0,15.82,7.35ZM8,4.27C4.61,4.27,4.56,8,4.56,8H3.29C2.91,2.94,8,2.94,8,2.94Z"/></svg>